<?xml version="1.0" encoding="utf-8"?>
<!-- Generator: Adobe Illustrator 23.0.0, SVG Export Plug-In . SVG Version: 6.00 Build 0)  -->
<svg version="1.1" id="Layer_1" xmlns="http://www.w3.org/2000/svg" xmlns:xlink="http://www.w3.org/1999/xlink" x="0px" y="0px"
	 viewBox="0 0 100 50" style="enable-background:new 0 0 100 50;" xml:space="preserve">
<style type="text/css">
	.st0{fill:#FF0000;}
	.st1{fill:#0000E7;}
</style>
<path class="st0" d="M27.4,6.3l4.7,2.4L21.2,36.3C16.9,47.2,10.9,48.2,4.6,45C2.9,44.1,1,42.6,0,41.5l2.4-4c0.8,0.9,2.1,2,3.6,2.8
	c4.2,2.1,7.5,1.3,10.7-6.8L27.4,6.3z"/>
<path class="st0" d="M50.2,24.4c-0.2-4.5-0.5-9.9-0.4-13.9h-0.1c-1,3.8-2.1,7.8-3.6,12.2l-5,15.6h-2.8L33.7,23
	c-1.4-4.5-2.5-8.7-3.3-12.5h-0.1c-0.1,4-0.3,9.4-0.6,14.2l-0.7,13.8h-3.5l2-32.1h4.7l4.8,15.5c1.2,4,2.1,7.5,2.8,10.8H40
	c0.7-3.2,1.7-6.8,3-10.8l5-15.5h4.7l1.8,32.1h-3.6L50.2,24.4z"/>
<path class="st0" d="M54.8,6.7c1.8-0.3,4.1-0.6,7-0.6c3.6,0,6.3,0.9,7.9,2.7c1.5,1.5,2.5,3.9,2.5,6.7c0,2.9-0.7,5.2-2.2,6.9
	c-1.9,2.3-5.1,3.5-8.6,3.5c-1.1,0-2.1,0-2.9-0.3v12.9h-3.6V6.7z M58.4,22.2c0.8,0.2,1.8,0.3,3,0.3c4.4,0,7.1-2.4,7.1-6.9
	c0-4.2-2.6-6.3-6.7-6.3c-1.6,0-2.8,0.1-3.4,0.3V22.2z"/>
<path class="st0" d="M97.7,22.1c0,11.1-5.9,16.9-13.1,16.9c-7.5,0-12.7-6.6-12.7-16.3c0-10.2,5.6-16.9,13.1-16.9
	C92.7,5.8,97.7,12.6,97.7,22.1z M75.7,22.6c0,6.9,3.3,13,9,13c5.8,0,9.1-6.1,9.1-13.3c0-6.4-2.9-13.1-9-13.1
	C78.8,9.2,75.7,15.6,75.7,22.6z"/>
<rect x="18.1" y="38.1" class="st1" width="81.9" height="4.8"/>
</svg>
